<svg xmlns="http://www.w3.org/2000/svg" version="1.1" xmlns:xlink="http://www.w3.org/1999/xlink" xmlns:svgjs="http://svgjs.dev/svgjs" width="1000" height="623" viewBox="0 0 1000 623"><g transform="matrix(1,0,0,1,-0.6060606060606233,0.2522267206477409)"><svg viewBox="0 0 396 247" data-background-color="#ffffff" preserveAspectRatio="xMidYMid meet" height="623" width="1000" xmlns="http://www.w3.org/2000/svg" xmlns:xlink="http://www.w3.org/1999/xlink"><g id="tight-bounds" transform="matrix(1,0,0,1,0.2400000000000091,-0.09999999999999432)"><svg viewBox="0 0 395.52 247.2" height="247.2" width="395.52"><g><svg></svg></g><g><svg viewBox="0 0 395.52 247.2" height="247.2" width="395.52"><g transform="matrix(1,0,0,1,75.54432,72.62511911927064)"><svg viewBox="0 0 244.43135999999998 101.9497617614587" height="101.9497617614587" width="244.43135999999998"><g><svg viewBox="0 0 244.43135999999998 101.9497617614587" height="101.9497617614587" width="244.43135999999998"><g><svg viewBox="0 0 244.43135999999998 101.9497617614587" height="101.9497617614587" width="244.43135999999998"><g><svg viewBox="0 0 244.43135999999998 101.9497617614587" height="101.9497617614587" width="244.43135999999998"><g id="textblocktransform"><svg viewBox="0 0 244.43135999999998 101.9497617614587" height="101.9497617614587" width="244.43135999999998" id="textblock"><g><svg viewBox="0 0 244.43135999999998 54.986829968921825" height="54.986829968921825" width="244.43135999999998"><g transform="matrix(1,0,0,1,0,0)"><svg width="244.43135999999998" viewBox="0.3500000238418579 -35.04999923706055 209.12998962402344 47.04999923706055" height="54.986829968921825" data-palette-color="#d9bca9"><path d="M5.6 12L5.6 12Q3.6 12 2.43 11 1.25 10 1.25 8.45L1.25 8.45Q1.25 7.05 2.25 6.2 3.25 5.35 4.5 5.35L4.5 5.35Q5.75 5.35 6.6 5.88 7.45 6.4 8.1 7.4L8.1 7.4 8.45 7.8Q9.55 9.3 10.65 7.75L10.65 7.75Q11.1 7 11.68 5.78 12.25 4.55 13 2.5L13 2.5 3.3-20.7Q2.95-21.65 2.55-22.23 2.15-22.8 1.25-23.2L1.25-23.2 0.35-23.55 0.35-24.05 12.8-24.05 12.8-23.6 11.8-23.2Q10.7-22.85 10.68-22.08 10.65-21.3 11.05-20.15L11.05-20.15 16.25-6.65 21.2-20.3Q21.6-21.45 21.5-22.23 21.4-23 20.25-23.3L20.25-23.3 19.2-23.55 19.2-24.05 26.15-24.05 26.15-23.55 25.05-23.2Q23.9-22.85 23.45-22.2 23-21.55 22.6-20.4L22.6-20.4 14.55 1.55Q12.6 6.8 10.65 9.4 8.7 12 5.6 12ZM40.45 0.75L40.45 0.75Q36.65 0.75 33.85-0.83 31.05-2.4 29.52-5.3 28-8.2 28-12.1L28-12.1Q28-16 29.62-18.85 31.25-21.7 34.07-23.25 36.9-24.8 40.45-24.8L40.45-24.8Q44-24.8 46.8-23.28 49.6-21.75 51.22-18.9 52.85-16.05 52.85-12.1L52.85-12.1Q52.85-8.15 51.32-5.28 49.8-2.4 47.02-0.83 44.25 0.75 40.45 0.75ZM40.45-0.25L40.45-0.25Q42.2-0.25 43.25-1.25 44.3-2.25 44.77-4.8 45.25-7.35 45.25-12L45.25-12Q45.25-16.7 44.77-19.25 44.3-21.8 43.25-22.8 42.2-23.8 40.45-23.8L40.45-23.8Q38.7-23.8 37.62-22.8 36.55-21.8 36.07-19.25 35.6-16.7 35.6-12L35.6-12Q35.6-7.35 36.07-4.8 36.55-2.25 37.62-1.25 38.7-0.25 40.45-0.25ZM64.09 0.75L64.09 0.75Q62.15 0.75 60.52 0 58.9-0.75 57.97-2.43 57.05-4.1 57.09-6.85L57.09-6.85 57.25-19.7Q57.25-20.85 56.84-21.35 56.45-21.85 55.59-22.05L55.59-22.05 55-22.25 55-22.75 63.95-24.5 64.45-24 64.2-16.9 64.2-4.85Q64.2-3.25 65.12-2.5 66.05-1.75 67.45-1.75L67.45-1.75Q68.84-1.75 69.95-2.15 71.05-2.55 72.15-3.35L72.15-3.35 72.34-19.65Q72.34-20.8 72-21.28 71.65-21.75 70.7-21.95L70.7-21.95 70.2-22.1 70.2-22.6 78.95-24.5 79.45-24 79.3-16.9 79.3-3.35Q79.3-2.25 79.59-1.65 79.9-1.05 80.9-0.65L80.9-0.65 81.4-0.5 81.4 0 72.65 0.5 72.2-2.45Q70.55-1.1 68.62-0.18 66.7 0.75 64.09 0.75ZM96.34 0L83.39 0 83.39-0.5 84.14-0.7Q85.14-1 85.52-1.6 85.89-2.2 85.89-3.15L85.89-3.15 85.89-18.8Q85.89-19.9 85.52-20.43 85.14-20.95 84.14-21.15L84.14-21.15 83.39-21.35 83.39-21.85 91.99-24.75 92.49-24.25 92.94-19.95 92.94-19.55Q93.64-20.95 94.77-22.13 95.89-23.3 97.27-24.05 98.64-24.8 99.99-24.8L99.99-24.8Q101.89-24.8 102.89-23.75 103.89-22.7 103.89-21.1L103.89-21.1Q103.89-19.4 102.92-18.48 101.94-17.55 100.59-17.55L100.59-17.55Q98.49-17.55 96.89-19.65L96.89-19.65 96.79-19.75Q96.29-20.45 95.64-20.53 94.99-20.6 94.44-19.9L94.44-19.9Q93.94-19.45 93.62-18.82 93.29-18.2 92.99-17.4L92.99-17.4 92.99-3.45Q92.99-1.45 94.74-0.95L94.74-0.95 96.34-0.5 96.34 0ZM128.44 0L116.49 0 116.49-0.5 117.09-0.7Q118.89-1.3 118.89-3.2L118.89-3.2 118.89-29.95Q118.89-30.95 118.49-31.48 118.09-32 117.09-32.25L117.09-32.25 116.44-32.4 116.44-32.9 125.59-35.05 126.19-34.6 125.99-27.6 125.99-10.5Q125.99-8.65 126.01-6.83 126.04-5 126.04-3.2L126.04-3.2Q126.04-2.2 126.44-1.58 126.84-0.95 127.79-0.65L127.79-0.65 128.44-0.5 128.44 0ZM143.29 0.75L143.29 0.75Q139.49 0.75 136.69-0.83 133.89-2.4 132.36-5.3 130.84-8.2 130.84-12.1L130.84-12.1Q130.84-16 132.46-18.85 134.09-21.7 136.91-23.25 139.74-24.8 143.29-24.8L143.29-24.8Q146.84-24.8 149.64-23.28 152.44-21.75 154.06-18.9 155.69-16.05 155.69-12.1L155.69-12.1Q155.69-8.15 154.16-5.28 152.64-2.4 149.86-0.83 147.09 0.75 143.29 0.75ZM143.29-0.25L143.29-0.25Q145.04-0.25 146.09-1.25 147.14-2.25 147.61-4.8 148.09-7.35 148.09-12L148.09-12Q148.09-16.7 147.61-19.25 147.14-21.8 146.09-22.8 145.04-23.8 143.29-23.8L143.29-23.8Q141.54-23.8 140.46-22.8 139.39-21.8 138.91-19.25 138.44-16.7 138.44-12L138.44-12Q138.44-7.35 138.91-4.8 139.39-2.25 140.46-1.25 141.54-0.25 143.29-0.25ZM168.78-8.65L168.78-8.65Q165.33-8.65 162.93-9.8L162.93-9.8 162.93-8.1Q162.93-6.55 164.48-6.25L164.48-6.25 173.88-4.5Q176.23-4.05 178.13-3.33 180.03-2.6 181.18-1.28 182.33 0.05 182.33 2.35L182.33 2.35Q182.33 4.8 180.73 6.88 179.13 8.95 176.01 10.23 172.88 11.5 168.23 11.5L168.23 11.5Q164.23 11.5 161.88 10.68 159.53 9.85 158.56 8.55 157.58 7.25 157.58 5.8L157.58 5.8Q157.58 4 158.81 2.18 160.03 0.35 161.83-0.75L161.83-0.75Q160.28-1.35 159.58-2.3 158.88-3.25 158.88-4.35L158.88-4.35Q158.88-5.35 159.41-6.23 159.93-7.1 160.68-8L160.68-8 162.33-10.1Q158.68-12.2 158.68-16.7L158.68-16.7Q158.68-20.3 161.26-22.55 163.83-24.8 168.83-24.8L168.83-24.8Q171.38-24.8 173.31-24.2 175.23-23.6 176.48-22.5L176.48-22.5Q178.08-22.75 179.51-23.33 180.93-23.9 182.08-24.9L182.08-24.9 182.78-24.4 182.78-21.85 177.13-21.85Q178.93-19.85 178.93-16.7L178.93-16.7Q178.93-13.2 176.36-10.93 173.78-8.65 168.78-8.65ZM168.73-9.65L168.73-9.65Q170.73-9.65 171.66-11.3 172.58-12.95 172.58-16.8L172.58-16.8Q172.58-20.65 171.66-22.23 170.73-23.8 168.83-23.8L168.83-23.8Q166.98-23.8 166.03-22.18 165.08-20.55 165.08-16.7L165.08-16.7Q165.08-12.85 165.96-11.25 166.83-9.65 168.73-9.65ZM161.28 4.2L161.28 4.2Q161.28 7.15 163.11 8.65 164.93 10.15 168.88 10.15L168.88 10.15Q173.03 10.15 175.13 8.8 177.23 7.45 177.23 5L177.23 5Q177.23 3.6 176.21 2.75 175.18 1.9 172.73 1.45L172.73 1.45 163.68-0.25Q163.28-0.35 162.88-0.45L162.88-0.45Q162.18 0.55 161.73 1.83 161.28 3.1 161.28 4.2ZM197.08 0.75L197.08 0.75Q193.28 0.75 190.48-0.83 187.68-2.4 186.16-5.3 184.63-8.2 184.63-12.1L184.63-12.1Q184.63-16 186.26-18.85 187.88-21.7 190.71-23.25 193.53-24.8 197.08-24.8L197.08-24.8Q200.63-24.8 203.43-23.28 206.23-21.75 207.86-18.9 209.48-16.05 209.48-12.1L209.48-12.1Q209.48-8.15 207.96-5.28 206.43-2.4 203.66-0.83 200.88 0.75 197.08 0.75ZM197.08-0.25L197.08-0.25Q198.83-0.25 199.88-1.25 200.93-2.25 201.41-4.8 201.88-7.35 201.88-12L201.88-12Q201.88-16.7 201.41-19.25 200.93-21.8 199.88-22.8 198.83-23.8 197.08-23.8L197.08-23.8Q195.33-23.8 194.26-22.8 193.18-21.8 192.71-19.25 192.23-16.7 192.23-12L192.23-12Q192.23-7.35 192.71-4.8 193.18-2.25 194.26-1.25 195.33-0.25 197.08-0.25Z" opacity="1" transform="matrix(1,0,0,1,0,0)" fill="#d9bca9" class="wordmark-text-0" data-fill-palette-color="primary" id="text-0"></path></svg></g></svg></g><g transform="matrix(1,0,0,1,0,67.96790084066501)"><svg viewBox="0 0 244.43135999999998 33.981860920793686" height="33.981860920793686" width="244.43135999999998"><g transform="matrix(1,0,0,1,0,0)"><svg width="244.43135999999998" viewBox="-0.9800000190734863 -37.55158996582031 282.75 39.311588287353516" height="33.981860920793686" data-palette-color="#7c4e29"><path d="M15.77-26.86L15.77-26.86Q15.77-25.44 14.82-24.76 13.87-24.07 12.7-23.46 11.52-22.85 10.57-22.02 9.62-21.19 9.62-19.53L9.62-19.53Q9.62-18.65 10.03-18.02 10.45-17.38 11.06-16.87 11.67-16.36 12.4-15.82 13.13-15.28 13.75-14.6 14.36-13.92 14.77-12.94 15.19-11.96 15.19-10.55L15.19-10.55Q15.19-8.5 14.14-6.52 13.09-4.54 11.45-3 9.81-1.46 7.76-0.54 5.71 0.39 3.71 0.39L3.71 0.39Q2.88 0.39 2.05 0.27 1.22 0.15 0.56-0.2-0.1-0.54-0.54-1.15-0.98-1.76-0.98-2.73L-0.98-2.73Q-0.98-4.1-0.44-4.86 0.1-5.62 0.93-6.05 1.76-6.49 2.71-6.74 3.66-6.98 4.49-7.35 5.32-7.71 5.86-8.3 6.4-8.89 6.4-9.96L6.4-9.96Q6.4-10.99 5.59-12.08 4.79-13.18 3.81-14.43 2.83-15.67 2.03-17.09 1.22-18.51 1.22-20.21L1.22-20.21Q1.22-22.31 2.08-24.1 2.93-25.88 4.37-27.2 5.81-28.52 7.67-29.27 9.52-30.03 11.57-30.03L11.57-30.03Q12.35-30.03 13.11-29.88 13.87-29.74 14.45-29.37 15.04-29 15.41-28.39 15.77-27.78 15.77-26.86ZM49.11-12.65L49.11-12.65Q49.11-11.82 49.08-10.18 49.06-8.54 48.94-6.76 48.82-4.98 48.62-3.39 48.42-1.81 48.13-1.07L48.13-1.07Q47.74-0.15 47.11 0.54 46.47 1.22 45.4 1.22L45.4 1.22Q43.74 1.22 43-0.1 42.27-1.42 42.03-3.37 41.78-5.32 41.83-7.62 41.88-9.91 41.78-11.87 41.69-13.82 41.25-15.14 40.81-16.46 39.64-16.46L39.64-16.46Q38.02-16.46 37.17-15.94 36.32-15.43 35.95-14.6 35.58-13.77 35.51-12.7 35.44-11.62 35.34-10.45L35.34-10.45Q35.24-9.33 35.19-7.42 35.14-5.52 34.75-3.66 34.36-1.81 33.46-0.46 32.56 0.88 30.8 0.88L30.8 0.88Q29.72 0.88 29.06 0.05 28.4-0.78 28.01-2.1 27.62-3.42 27.45-5.03 27.28-6.64 27.26-8.18 27.23-9.72 27.26-10.99 27.28-12.26 27.28-12.89L27.28-12.89Q27.28-13.87 27.36-16.11 27.43-18.36 27.67-21.12 27.92-23.88 28.31-26.81 28.7-29.74 29.33-32.15 29.97-34.57 30.87-36.08 31.77-37.6 32.99-37.55L32.99-37.55Q33.78-37.5 34.34-36.87 34.9-36.23 35.27-35.23 35.63-34.23 35.88-33.06 36.12-31.88 36.24-30.74 36.36-29.59 36.39-28.61 36.41-27.64 36.41-27.1L36.41-27.1Q36.41-25.83 36.36-24.56 36.32-23.29 36.22-22.02L36.22-22.02Q37.34-23.54 39.22-24.51 41.1-25.49 43-25.49L43-25.49Q45.45-25.49 46.69-24.15 47.94-22.8 48.47-20.83 49.01-18.85 49.06-16.63 49.11-14.4 49.11-12.65ZM71.07 1.42L71.07 1.42Q68.58 1.42 66.72 0.1 64.87-1.22 63.6-3.27 62.33-5.32 61.69-7.84 61.06-10.35 61.06-12.79L61.06-12.79Q61.06-15.38 61.69-18.14 62.33-20.9 63.65-23.17 64.96-25.44 67.01-26.88 69.07-28.32 71.9-28.32L71.9-28.32Q74.63-28.32 76.56-26.83 78.49-25.34 79.66-23.12 80.83-20.9 81.32-18.26 81.81-15.63 81.66-13.28L81.66-13.28Q81.52-10.69 80.86-8.06 80.2-5.42 78.93-3.32 77.66-1.22 75.71 0.1 73.75 1.42 71.07 1.42ZM71.56-20.65L71.56-20.65Q70.82-20.65 70.26-19.87 69.7-19.09 69.33-17.97 68.97-16.85 68.77-15.6 68.58-14.36 68.58-13.43L68.58-13.43Q68.58-12.26 68.8-10.89 69.02-9.52 69.41-8.37 69.8-7.23 70.36-6.47 70.92-5.71 71.65-5.71L71.65-5.71Q72.43-5.71 73-6.45 73.56-7.18 73.9-8.3 74.24-9.42 74.39-10.77 74.53-12.11 74.53-13.28L74.53-13.28Q74.53-14.36 74.34-15.65 74.14-16.94 73.78-18.07 73.41-19.19 72.85-19.92 72.29-20.65 71.56-20.65ZM113.83-8.69L113.83-8.69Q113.83-7.03 112.78-5.44 111.73-3.86 110.14-2.61 108.55-1.37 106.75-0.61 104.94 0.15 103.43 0.15L103.43 0.15Q100.84 0.15 98.81-1.15 96.79-2.44 95.42-4.44 94.05-6.45 93.34-8.86 92.64-11.28 92.64-13.57L92.64-13.57Q92.64-16.02 93.32-18.8 94-21.58 95.4-23.93 96.79-26.27 98.91-27.83 101.03-29.39 103.96-29.39L103.96-29.39Q105.62-29.39 107.14-28.83 108.65-28.27 109.78-27.25 110.9-26.22 111.58-24.8 112.27-23.39 112.27-21.63L112.27-21.63Q112.27-19.34 111.29-17.33 110.31-15.33 108.7-13.87 107.09-12.4 104.99-11.5 102.89-10.6 100.69-10.5L100.69-10.5Q100.89-9.08 101.84-8.45 102.79-7.81 104.11-7.81L104.11-7.81Q105.09-7.81 106.02-8.3 106.94-8.79 107.82-9.4 108.7-10.01 109.56-10.5 110.41-10.99 111.29-10.99L111.29-10.99Q112.27-10.99 113.05-10.35 113.83-9.72 113.83-8.69ZM105.92-20.65L105.92-20.65Q105.92-21.29 105.58-21.97 105.23-22.66 104.5-22.66L104.5-22.66Q103.43-22.66 102.7-22.09 101.96-21.53 101.47-20.68 100.99-19.82 100.72-18.85 100.45-17.87 100.4-17.04L100.4-17.04Q101.08-17.19 102.04-17.43 102.99-17.68 103.84-18.09 104.7-18.51 105.31-19.14 105.92-19.78 105.92-20.65ZM160.29-26.86L160.29-26.86Q160.29-25.44 159.33-24.76 158.38-24.07 157.21-23.46 156.04-22.85 155.09-22.02 154.13-21.19 154.13-19.53L154.13-19.53Q154.13-18.65 154.55-18.02 154.96-17.38 155.57-16.87 156.18-16.36 156.92-15.82 157.65-15.28 158.26-14.6 158.87-13.92 159.29-12.94 159.7-11.96 159.7-10.55L159.7-10.55Q159.7-8.5 158.65-6.52 157.6-4.54 155.96-3 154.33-1.46 152.28-0.54 150.23 0.39 148.23 0.39L148.23 0.39Q147.4 0.39 146.57 0.27 145.74 0.15 145.08-0.2 144.42-0.54 143.98-1.15 143.54-1.76 143.54-2.73L143.54-2.73Q143.54-4.1 144.08-4.86 144.61-5.62 145.44-6.05 146.27-6.49 147.22-6.74 148.18-6.98 149.01-7.35 149.84-7.71 150.37-8.3 150.91-8.89 150.91-9.96L150.91-9.96Q150.91-10.99 150.11-12.08 149.3-13.18 148.32-14.43 147.35-15.67 146.54-17.09 145.74-18.51 145.74-20.21L145.74-20.21Q145.74-22.31 146.59-24.1 147.44-25.88 148.88-27.2 150.33-28.52 152.18-29.27 154.04-30.03 156.09-30.03L156.09-30.03Q156.87-30.03 157.62-29.88 158.38-29.74 158.97-29.37 159.55-29 159.92-28.39 160.29-27.78 160.29-26.86ZM182.83 1.76L182.83 1.76Q179.36 1.76 177.44 0.85 175.51-0.05 174.56-1.71 173.6-3.37 173.41-5.71 173.21-8.06 173.21-10.94L173.21-10.94Q173.21-13.23 173.36-15.55 173.51-17.87 173.8-20.51L173.8-20.51Q173.11-20.51 172.72-20.48 172.33-20.46 172.09-20.46L172.09-20.46Q170.53-20.46 169.38-21.14 168.23-21.83 168.23-23.24L168.23-23.24Q168.23-24.12 168.89-24.8 169.55-25.49 170.58-25.98 171.6-26.46 172.8-26.76 173.99-27.05 175.07-27.15L175.07-27.15Q175.07-28.52 175.26-30.18 175.46-31.84 175.97-33.28 176.48-34.72 177.36-35.69 178.24-36.67 179.61-36.67L179.61-36.67Q180.39-36.67 181-36.21 181.61-35.74 182-35.03 182.39-34.33 182.59-33.45 182.78-32.57 182.78-31.74L182.78-31.74Q182.78-30.76 182.64-29.74 182.49-28.71 182.1-27.2L182.1-27.2Q182.93-27.29 183.22-27.32 183.52-27.34 183.76-27.34L183.76-27.34Q184.59-27.34 185.49-27.2 186.4-27.05 187.15-26.71 187.91-26.37 188.4-25.81 188.89-25.24 188.89-24.46L188.89-24.46Q188.89-23.58 188.18-22.9 187.47-22.22 186.4-21.73 185.32-21.24 184.1-20.97 182.88-20.7 181.81-20.61L181.81-20.61Q181.51-18.6 181.39-16.92 181.27-15.23 181.12-13.53L181.12-13.53Q181.02-12.7 180.95-11.84 180.88-10.99 180.88-10.11L180.88-10.11Q180.88-9.47 180.93-8.62 180.98-7.76 181.27-6.98 181.56-6.2 182.2-5.64 182.83-5.08 183.95-5.08L183.95-5.08Q184.64-5.08 185.37-5.2 186.1-5.32 186.84-5.32L186.84-5.32Q188.11-5.32 188.67-4.44 189.23-3.56 189.23-2.2L189.23-2.2Q189.23-1.17 188.62-0.42 188.01 0.34 187.08 0.81 186.15 1.27 185 1.51 183.86 1.76 182.83 1.76ZM208.7 1.42L208.7 1.42Q206.21 1.42 204.35 0.1 202.5-1.22 201.23-3.27 199.96-5.32 199.32-7.84 198.69-10.35 198.69-12.79L198.69-12.79Q198.69-15.38 199.32-18.14 199.96-20.9 201.28-23.17 202.59-25.44 204.64-26.88 206.7-28.32 209.53-28.32L209.53-28.32Q212.26-28.32 214.19-26.83 216.12-25.34 217.29-23.12 218.46-20.9 218.95-18.26 219.44-15.63 219.29-13.28L219.29-13.28Q219.15-10.69 218.49-8.06 217.83-5.42 216.56-3.32 215.29-1.22 213.34 0.1 211.38 1.42 208.7 1.42ZM209.19-20.65L209.19-20.65Q208.45-20.65 207.89-19.87 207.33-19.09 206.96-17.97 206.6-16.85 206.4-15.6 206.21-14.36 206.21-13.43L206.21-13.43Q206.21-12.26 206.43-10.89 206.65-9.52 207.04-8.37 207.43-7.23 207.99-6.47 208.55-5.71 209.28-5.71L209.28-5.71Q210.06-5.71 210.63-6.45 211.19-7.18 211.53-8.3 211.87-9.42 212.02-10.77 212.16-12.11 212.16-13.28L212.16-13.28Q212.16-14.36 211.97-15.65 211.77-16.94 211.41-18.07 211.04-19.19 210.48-19.92 209.92-20.65 209.19-20.65ZM247.94-18.26L247.94-18.26Q247.26-18.21 246.77-18.38 246.28-18.55 245.79-18.75L245.79-18.75Q245.35-18.95 244.91-19.12 244.48-19.29 243.94-19.24L243.94-19.24Q242.96-19.19 242.2-18.7 241.45-18.21 240.84-17.48 240.23-16.75 239.79-15.84 239.35-14.94 239.1-14.06L239.1-14.06Q238.96-13.48 238.88-12.28 238.81-11.08 238.81-9.72L238.81-9.72Q238.76-8.3 238.76-7.03 238.76-5.76 238.66-5.03L238.66-5.03Q238.62-4.25 238.42-3.2 238.23-2.15 237.81-1.22 237.4-0.29 236.71 0.34 236.03 0.98 234.95 0.98L234.95 0.98Q234.12 0.98 233.51 0.49 232.9 0 232.49-0.81 232.07-1.61 231.8-2.69 231.54-3.76 231.39-4.88L231.39-4.88Q231.24-6.05 231.17-7.23 231.1-8.4 231.07-9.45 231.05-10.5 231.07-11.38 231.1-12.26 231.1-12.79L231.1-12.79Q231.05-14.5 230.93-16.24 230.8-17.97 230.8-19.68L230.8-19.68Q230.8-20.75 230.9-22.07 231-23.39 231.44-24.54 231.88-25.68 232.73-26.46 233.59-27.25 235.1-27.25L235.1-27.25Q235.93-27.25 236.52-26.71 237.1-26.17 237.47-25.39 237.83-24.61 238.03-23.73 238.23-22.85 238.27-22.12L238.27-22.12Q239.45-24.02 240.91-25.22 242.38-26.42 244.72-26.51L244.72-26.51Q245.89-26.56 247.04-26.29 248.19-26.03 249.14-25.42 250.09-24.8 250.7-23.83 251.31-22.85 251.36-21.53L251.36-21.53Q251.46-19.97 250.43-19.14 249.41-18.31 247.94-18.26ZM281.77-8.69L281.77-8.69Q281.77-7.03 280.72-5.44 279.67-3.86 278.08-2.61 276.49-1.37 274.69-0.61 272.88 0.15 271.37 0.15L271.37 0.15Q268.78 0.15 266.75-1.15 264.73-2.44 263.36-4.44 261.99-6.45 261.28-8.86 260.58-11.28 260.58-13.57L260.58-13.57Q260.58-16.02 261.26-18.8 261.94-21.58 263.33-23.93 264.73-26.27 266.85-27.83 268.97-29.39 271.9-29.39L271.9-29.39Q273.56-29.39 275.08-28.83 276.59-28.27 277.71-27.25 278.84-26.22 279.52-24.8 280.2-23.39 280.2-21.63L280.2-21.63Q280.2-19.34 279.23-17.33 278.25-15.33 276.64-13.87 275.03-12.4 272.93-11.5 270.83-10.6 268.63-10.5L268.63-10.5Q268.83-9.08 269.78-8.45 270.73-7.81 272.05-7.81L272.05-7.81Q273.03-7.81 273.95-8.3 274.88-8.79 275.76-9.4 276.64-10.01 277.49-10.5 278.35-10.99 279.23-10.99L279.23-10.99Q280.2-10.99 280.99-10.35 281.77-9.72 281.77-8.69ZM273.86-20.65L273.86-20.65Q273.86-21.29 273.51-21.97 273.17-22.66 272.44-22.66L272.44-22.66Q271.37-22.66 270.63-22.09 269.9-21.53 269.41-20.68 268.93-19.82 268.66-18.85 268.39-17.87 268.34-17.04L268.34-17.04Q269.02-17.19 269.97-17.43 270.93-17.68 271.78-18.09 272.64-18.51 273.25-19.14 273.86-19.78 273.86-20.65Z" opacity="1" transform="matrix(1,0,0,1,0,0)" fill="#7c4e29" class="slogan-text-1" data-fill-palette-color="secondary" id="text-1"></path></svg></g></svg></g></svg></g></svg></g></svg></g></svg></g></svg></g><g><path d="M0 123.6c0-68.262 55.338-123.6 123.6-123.6 47.517 0 88.771 26.813 109.457 66.135l-2.81 0c-20.467-37.903-60.549-63.655-106.647-63.656-66.893 0-121.121 54.228-121.121 121.121 0 66.893 54.228 121.121 121.121 121.121 46.098 0 86.181-25.752 106.647-63.656h2.81c-20.686 39.321-61.941 66.135-109.457 66.135-68.262 0-123.6-55.338-123.6-123.6z" fill="#d9bca9" stroke="transparent" data-fill-palette-color="tertiary"></path></g></svg></g><defs></defs></svg><rect width="395.52" height="247.2" fill="none" stroke="none" visibility="hidden"></rect></g></svg></g></svg>